G04 MADE WITH FRITZING*
G04 WWW.FRITZING.ORG*
G04 DOUBLE SIDED*
G04 HOLES PLATED*
G04 CONTOUR ON CENTER OF CONTOUR VECTOR*
%ASAXBY*%
%FSLAX23Y23*%
%MOIN*%
%OFA0B0*%
%SFA1.0B1.0*%
%ADD10C,0.088000*%
%ADD11C,0.090000*%
%ADD12C,0.206851*%
%ADD13C,0.085000*%
%ADD14C,0.080000*%
%ADD15C,0.092000*%
%ADD16C,0.075000*%
%ADD17R,0.090000X0.090000*%
%ADD18R,0.079972X0.080000*%
%ADD19R,0.092000X0.092000*%
%ADD20R,0.088000X0.088000*%
%LNMASK0*%
G90*
G70*
G54D10*
X294Y1261D03*
X294Y1161D03*
X294Y1061D03*
X294Y961D03*
X1494Y1761D03*
G54D11*
X94Y1561D03*
X94Y1423D03*
G54D12*
X194Y161D03*
X194Y1761D03*
X2594Y161D03*
X2594Y1761D03*
G54D13*
X1794Y1061D03*
X1794Y861D03*
X1894Y861D03*
X1894Y461D03*
X2494Y761D03*
X2494Y361D03*
X2394Y561D03*
X2394Y261D03*
X1794Y261D03*
X1794Y61D03*
G54D11*
X2494Y1561D03*
X2494Y1423D03*
G54D14*
X1094Y361D03*
X1094Y461D03*
X1094Y561D03*
X1094Y661D03*
X1094Y761D03*
X1094Y861D03*
X1094Y961D03*
X1094Y1061D03*
X1094Y1161D03*
X1094Y1261D03*
X1094Y1361D03*
X1094Y1461D03*
X1094Y1561D03*
X1094Y1661D03*
X1094Y1761D03*
X494Y361D03*
X494Y461D03*
X494Y561D03*
X494Y661D03*
X494Y761D03*
X494Y861D03*
X494Y961D03*
X494Y1061D03*
X494Y1161D03*
X494Y1261D03*
X494Y1361D03*
X494Y1461D03*
X494Y1561D03*
X494Y1661D03*
X494Y1761D03*
G54D13*
X1294Y1061D03*
X1694Y1061D03*
X1794Y1861D03*
X2194Y1861D03*
X2594Y461D03*
X2594Y861D03*
X2394Y961D03*
X1994Y961D03*
G54D15*
X1294Y361D03*
X1592Y361D03*
G54D11*
X1794Y361D03*
X2194Y361D03*
G54D14*
X1794Y1661D03*
X1794Y1761D03*
G54D16*
X1994Y1361D03*
X1994Y1282D03*
X1994Y1204D03*
X1994Y1125D03*
G54D13*
X2194Y761D03*
X2194Y661D03*
X2194Y561D03*
X1494Y761D03*
X1494Y661D03*
X1494Y561D03*
X1294Y1361D03*
X1694Y1361D03*
X1294Y1261D03*
X1694Y1261D03*
X1294Y1161D03*
X1694Y1161D03*
G54D10*
X1494Y1661D03*
X1494Y1561D03*
G54D17*
X94Y1561D03*
X2494Y1561D03*
G54D18*
X1094Y361D03*
G54D19*
X1293Y361D03*
G54D20*
X1494Y1661D03*
G04 End of Mask0*
M02*