; NON-PLATED HOLES START AT T1
; THROUGH (PLATED) HOLES START AT T100
M48
INCH
T100C0.118110
T101C0.030000
T102C0.025000
T103C0.042000
T104C0.038000
T105C0.040000
T106C0.036000
T107C0.035000
%
T100
X001937Y017611
X025938Y001611
X001937Y001611
X025938Y017611
T101
X017938Y016611
X017938Y017613
T102
X019938Y012037
X019938Y012823
X019938Y011249
X019938Y013611
T103
X012938Y003611
X015918Y003611
T104
X002938Y009611
X014938Y015611
X002938Y010611
X014938Y016611
X002938Y011611
X014938Y017611
X002938Y012611
T105
X017938Y003611
X024938Y015611
X000938Y015611
X024938Y014233
X000938Y014233
X021938Y003611
T106
X010938Y016611
X010938Y009611
X010938Y013611
X004938Y016611
X010938Y006611
X004938Y009611
X010938Y010611
X004938Y013611
X010938Y003611
X004938Y006611
X004938Y010611
X004938Y003611
X010938Y015611
X010938Y008611
X010938Y012611
X004938Y015611
X010938Y005611
X004938Y008611
X004938Y012611
X004938Y005611
X010938Y017611
X010938Y014611
X004938Y017611
X010938Y007611
X010938Y011611
X004938Y014611
X010938Y004611
X004938Y007611
X004938Y011611
X004938Y004611
T107
X014938Y006611
X017938Y000611
X021938Y018611
X017938Y018611
X018938Y004611
X016938Y011611
X023938Y005611
X017938Y008611
X021938Y005611
X019938Y009611
X023938Y002611
X012938Y011611
X017938Y002611
X014938Y005611
X016938Y013611
X024938Y007611
X016938Y010611
X025938Y008611
X021938Y007611
X012938Y013611
X012938Y010611
X018938Y008611
X014938Y007611
X023938Y009611
X016938Y012611
X024938Y003611
X021938Y006611
X012938Y012611
X025938Y004611
X017938Y010611
T00
M30
